<?xml version="1.0" encoding="utf-8"?>
<!-- Generator: Adobe Illustrator 19.2.0, SVG Export Plug-In . SVG Version: 6.00 Build 0)  -->
<svg version="1.1" id="Layer_1" xmlns="http://www.w3.org/2000/svg" xmlns:xlink="http://www.w3.org/1999/xlink" x="0px" y="0px"
	 viewBox="0 0 841.9 352.3" style="enable-background:new 0 0 841.9 352.3;" xml:space="preserve">
<style type="text/css">
	.st0{fill:#002352;}
	.st1{fill:#FFFFFF;}
	.st2{fill:#0066CC;}
</style>
<g>
	<g>
		<path class="st0" d="M755.3,263.6h-555v-52.4h581.9l-19,47C761.9,261.6,758.8,263.6,755.3,263.6z"/>
		<g>
			<path class="st1" d="M466.9,254.9l13.3-34.5h13.7c1.8,0,3.4,0.2,4.5,0.6c1.2,0.5,2,1.1,2.5,1.8c0.5,0.8,0.8,1.7,0.8,2.8
				c0,1.1-0.3,2.2-0.7,3.4l-0.4,0.8c-0.5,1.5-1.5,2.8-2.5,4c-1.1,1.2-2.5,2.2-4.1,2.8c1.3,0.6,2.1,1.6,2.4,3c0.3,1.4,0.1,3-0.6,4.8
				l-0.3,0.9c-1.2,3-3,5.4-5.6,7c-2.6,1.6-5.9,2.5-10.1,2.5L466.9,254.9L466.9,254.9z M476,249.4h6.2c1.5,0,2.9-0.4,4-1
				c1.1-0.6,1.9-1.7,2.5-3.2l0.4-0.8c1.2-3,0.1-4.5-3.3-4.5h-6L476,249.4z M481.8,234.4h6.1c1.3,0,2.5-0.4,3.4-0.9
				c1-0.6,1.7-1.5,2.2-2.8l0.3-0.6c1-2.6,0-3.9-3-3.9H485L481.8,234.4z"/>
			<path class="st1" d="M518.1,220.5l-11,28.5h14.8l-3.2,6h-21.3l13.3-34.5H518.1z"/>
			<path class="st1" d="M557,239.8c-0.9,2.4-2,4.4-3.2,6.4c-1.2,2-2.6,3.6-4.3,5c-1.6,1.4-3.5,2.5-5.6,3.3c-2.2,0.8-4.6,1.2-7.4,1.2
				c-2.9,0-5.1-0.4-6.6-1.2c-1.5-0.8-2.5-1.9-3.1-3.3c-0.5-1.4-0.6-3.1-0.3-5c0.4-2,1-4.1,1.8-6.4l1.5-4.1c0.9-2.4,2-4.5,3.2-6.4
				c1.2-2,2.6-3.6,4.3-5s3.4-2.5,5.6-3.3c2.1-0.8,4.5-1.2,7.4-1.2c2.9,0,5.2,0.4,6.7,1.3c1.5,0.8,2.5,2,3.1,3.4
				c0.5,1.5,0.5,3.1,0.2,5s-1,4.1-1.8,6.3L557,239.8z M535.9,239.9c-0.8,2.1-1.3,3.7-1.5,5c-0.2,1.3-0.2,2.3,0.1,3s0.8,1.2,1.5,1.5
				c0.7,0.3,1.6,0.4,2.8,0.4c1.1,0,2.1-0.1,3-0.4c0.9-0.3,1.8-0.7,2.7-1.5c0.8-0.7,1.7-1.7,2.5-3c0.8-1.3,1.5-2.9,2.4-5l1.6-4.3
				c0.8-2.1,1.3-3.7,1.5-5c0.2-1.3,0.2-2.3-0.1-3c-0.3-0.7-0.8-1.2-1.5-1.5c-0.7-0.3-1.6-0.4-2.8-0.4c-1.1,0-2.1,0.1-3,0.4
				c-0.9,0.3-1.8,0.7-2.7,1.5c-0.8,0.7-1.7,1.7-2.5,3c-0.8,1.3-1.5,2.9-2.4,5L535.9,239.9z"/>
			<path class="st1" d="M571.2,255.4c-2.8,0-5-0.4-6.5-1c-1.5-0.6-2.7-1.6-3.4-2.9c-0.6-1.3-0.8-2.9-0.5-4.9c0.3-2,0.9-4.3,2-6.9
				l1.4-3.5c0.9-2.4,2-4.4,3.2-6.4c1.3-2,2.7-3.6,4.4-5.2c1.7-1.5,3.7-2.6,6-3.4c2.3-0.8,4.8-1.3,7.8-1.3c1.6,0,3.1,0.1,4.4,0.4
				c1.3,0.3,2.4,0.5,3.1,0.8l-3.4,5.6c-0.6-0.3-1.5-0.5-2.4-0.6s-2-0.3-3.2-0.3c-1.5,0-2.9,0.2-4.1,0.5c-1.2,0.4-2.3,0.8-3.3,1.6
				s-1.9,1.8-2.7,3.2c-0.8,1.3-1.6,3-2.5,5l-1.3,3.2c-0.8,2.1-1.3,3.7-1.5,5c-0.3,1.3-0.2,2.3,0.2,3c0.4,0.7,1.1,1.3,2.1,1.5
				c1,0.3,2.4,0.4,4.1,0.4c0.9,0,2-0.1,3.3-0.1c1.3-0.1,2.5-0.3,3.8-0.5l-3.4,5.8c-1.4,0.3-2.6,0.5-4,0.6
				C573.5,255.4,572.2,255.4,571.2,255.4z"/>
			<path class="st1" d="M598.3,239.9l-5.8,15.1h-7.1l13.3-34.5h7l-5.4,14.2l17.3-14.2h8.2l-20.3,16.4l7.8,18h-8.9L598.3,239.9z"/>
			<path class="st1" d="M628.8,255.4c-2.8,0-5-0.4-6.5-1c-1.6-0.6-2.7-1.6-3.4-2.9c-0.6-1.3-0.8-2.9-0.5-4.9c0.3-2,0.9-4.3,2-6.9
				l1.4-3.5c0.9-2.4,2-4.4,3.2-6.4c1.3-2,2.7-3.6,4.4-5.2c1.7-1.5,3.7-2.6,6-3.4c2.3-0.8,4.8-1.3,7.8-1.3c1.6,0,3.1,0.1,4.4,0.4
				c1.3,0.3,2.4,0.5,3.1,0.8l-3.4,5.6c-0.6-0.3-1.5-0.5-2.4-0.6c-0.9-0.2-2-0.3-3.2-0.3c-1.5,0-2.9,0.2-4.1,0.5
				c-1.2,0.4-2.3,0.8-3.3,1.6c-1,0.8-1.9,1.8-2.7,3.2c-0.8,1.3-1.6,3-2.5,5l-1.3,3.2c-0.8,2.1-1.3,3.7-1.5,5c-0.2,1.3-0.2,2.3,0.2,3
				c0.4,0.7,1.1,1.3,2.1,1.5c1,0.3,2.4,0.4,4.1,0.4c0.9,0,2-0.1,3.3-0.1c1.3-0.1,2.5-0.3,3.8-0.5l-3.4,5.8c-1.4,0.3-2.6,0.5-4,0.6
				C631.1,255.4,629.9,255.4,628.8,255.4z"/>
			<path class="st1" d="M683.2,220.5L669.9,255h-7.4l5.8-15.1h-12.2l-5.8,15.1H643l13.3-34.5h7.4l-5.1,13.3h12.1l5.1-13.3H683.2z"/>
			<path class="st1" d="M698.6,246.4h-11.2l-5.9,8.5h-7.2l24.8-34.5h7.7l-1.5,34.5H698L698.6,246.4z M691.2,240.7h8.1l1.1-13.2
				L691.2,240.7z"/>
			<path class="st1" d="M717.4,254.9H710l13.3-34.5h7.4L717.4,254.9z"/>
			<path class="st1" d="M744.3,220.5l4.7,22.8l8.8-22.8h6.9L751.4,255h-6.5l-4.7-22.8l-8.8,22.8h-6.9l13.3-34.5H744.3z"/>
		</g>
		<g>
			<path class="st0" d="M391.9,106.5h25.5c6.1,0,10.9,0.8,14.3,2.4c3.4,1.5,5.9,3.7,7.3,6.5c1.4,2.8,1.7,6.2,1.3,10.1
				c-0.5,3.9-1.6,8.3-3.4,13l-2.3,5.8c-1.8,4.7-4,9-6.5,13c-2.5,3.9-5.5,7.4-9.1,10.2s-7.6,5.1-12.3,6.6c-4.7,1.5-10.1,2.4-16.2,2.4
				H365L391.9,106.5z M388.6,161.4h6.1c2.5,0,4.8-0.4,6.9-0.9c2.1-0.6,4-1.6,5.7-3.1c1.7-1.4,3.4-3.3,4.8-5.6
				c1.5-2.4,2.8-5.2,4.2-8.5l1.5-3.8c1.4-3.6,2.3-6.5,2.5-8.9c0.4-2.4,0.1-4.2-0.5-5.5c-0.6-1.4-1.8-2.4-3.4-2.8
				c-1.6-0.5-3.7-0.8-6.2-0.8h-6.1L388.6,161.4z"/>
			<path class="st0" d="M453.4,125h17.9l-19.9,51.4h-17.9L453.4,125z M464.1,120.4c-3.7,0-6-0.8-6.9-2.5c-0.9-1.6-0.8-3.7,0.2-6.4
				c1.1-2.7,2.6-4.8,4.7-6.4c2.1-1.6,5.1-2.5,8.8-2.5c3.7,0,6,0.8,6.9,2.5c0.9,1.6,0.8,3.7-0.3,6.4c-1,2.6-2.5,4.7-4.7,6.4
				C470.7,119.7,467.8,120.4,464.1,120.4z"/>
			<path class="st0" d="M495.9,171.4c-1.7,1.2-3.8,2.3-6.2,3.2s-5,1.5-7.8,1.5c-6.4,0-10.5-1.9-12.4-5.7c-1.9-3.8-1.1-10,2.2-18.6
				l0.9-2.5c1.7-4.5,3.9-8.5,6.4-11.7c2.5-3.3,5.4-5.9,8.5-7.9c3.2-2,6.5-3.5,10.2-4.4c3.6-0.9,7.5-1.5,11.6-1.5
				c4.9,0,9,0.5,12.2,1.5c3.2,1.1,6,2.4,8.3,4l-16.3,42.3c-1.8,4.6-4.1,8.7-6.7,12.3c-2.7,3.5-5.7,6.4-9,8.8
				c-3.3,2.4-6.8,4.1-10.5,5.3c-3.7,1.2-7.5,1.7-11.3,1.7c-4.1,0-7.8-0.3-11.2-0.7s-6.5-1.4-9.3-2.7l7.8-13.1
				c1.6,0.6,3.7,1.3,6.4,1.7c2.6,0.5,5.4,0.7,8.3,0.7c4.1,0,7.6-1,10.5-2.9s5.3-5.3,7.1-9.9L495.9,171.4z M489.6,152.1
				c-1.5,4.1-2.2,6.8-1.7,8.3c0.5,1.5,1.8,2.3,4.1,2.3c2.4,0,4.4-0.6,6.2-2c1.7-1.4,3.3-3.8,4.6-7.4l5.9-15.2c-1-0.6-2.7-1-5.1-1
				c-2.3,0-4.5,0.8-6.7,2.5s-4.1,4.4-5.5,8.3L489.6,152.1z"/>
			<path class="st0" d="M543.7,125h17.9l-19.9,51.4h-17.9L543.7,125z M554.4,120.4c-3.7,0-6-0.8-6.9-2.5c-0.9-1.6-0.8-3.7,0.2-6.4
				c1.1-2.7,2.6-4.8,4.7-6.4c2.1-1.6,5.1-2.5,8.8-2.5c3.7,0,6,0.8,6.9,2.5c0.9,1.6,0.8,3.7-0.3,6.4c-1,2.6-2.5,4.7-4.7,6.4
				C561,119.7,558.1,120.4,554.4,120.4z"/>
			<path class="st0" d="M554.3,176.3l27-69.8h29.1c3.8,0,6.9,0.5,9.4,1.3c2.5,0.9,4.3,2.2,5.4,3.8s1.7,3.5,1.8,5.8
				c0,2.2-0.5,4.7-1.5,7.4l-0.5,1.4c-1.1,2.9-2.8,5.6-4.9,8c-2.2,2.4-4.7,4.3-7.8,5.7c2.2,1.4,3.6,3.4,4.2,6.2
				c0.5,2.7,0.2,5.8-1.1,9.3l-0.5,1.4c-2.4,6.2-6.3,11-11.7,14.5c-5.4,3.5-12.6,5.3-21.6,5.3L554.3,176.3L554.3,176.3z M576.2,162.8
				h11c2.2,0,4.3-0.5,6.2-1.5c1.9-1.1,3.4-2.8,4.3-5.2l0.5-1.4c1.1-2.7,1.1-4.6,0.1-5.8c-1-1.2-2.7-1.7-5.4-1.7h-10.6L576.2,162.8z
				 M587.6,133.5h10.6c2,0,3.9-0.5,5.5-1.5c1.6-1,2.9-2.5,3.7-4.6l0.5-1.1c0.9-2.3,0.8-3.9-0.2-4.8c-1-0.9-2.5-1.5-4.6-1.5h-10.2
				L587.6,133.5z"/>
			<path class="st0" d="M688.1,125l-39.8,53c-2.5,3.4-4.9,6.4-7.2,9c-2.4,2.7-4.8,5-7.4,6.9c-2.5,1.9-5.3,3.4-8.2,4.4
				c-2.9,1-6.3,1.5-10,1.5c-1.1,0-2.2-0.1-3.4-0.2c-1.3-0.1-2.5-0.3-3.7-0.5c-1.2-0.2-2.3-0.5-3.2-0.7c-0.9-0.3-1.6-0.5-2.2-0.8
				l7.4-13.3c1,0.3,2.1,0.5,3.4,0.6c1.3,0.2,2.5,0.3,3.9,0.3c1.9,0,3.8-0.4,5.6-1c1.9-0.7,3.5-2,4.9-4l2.6-3.7l-0.3-51.5h20.2
				l-2.9,32.1l20.4-32.1L688.1,125L688.1,125z"/>
			<path class="st0" d="M713,137.9l-7.1,18.2c-2,5.3-0.5,7.8,4.4,7.8c1.8,0,3.4-0.1,4.6-0.2c1.3-0.1,2.4-0.3,3.4-0.4l-6.7,12.3
				c-0.6,0.2-1.5,0.4-2.4,0.5c-0.9,0.2-1.9,0.4-3,0.5c-1.1,0.1-2.2,0.3-3.4,0.4c-1.1,0.1-2.2,0.1-3.3,0.1c-3.7,0-6.6-0.5-8.9-1.3
				c-2.2-0.9-3.7-2.2-4.5-4c-0.8-1.8-1.1-4-0.7-6.6c0.4-2.6,1.3-5.7,2.6-9.3l7.1-18.2h-9.1l6.9-13h7.4l4.5-11.9l18.6-2.3l-5.4,14.1
				h14.8l-6.9,13L713,137.9L713,137.9z"/>
			<path class="st0" d="M744.5,156c-0.5,1.6-0.6,3-0.5,4.1c0.1,1.1,0.5,2,1.3,2.7c0.8,0.7,1.9,1.2,3.4,1.5c1.5,0.3,3.4,0.5,5.9,0.5
				s5.1-0.1,7.9-0.4s5.5-0.6,8.4-1.1l-6.9,11.9c-1.1,0.4-2.5,0.6-4,0.9c-1.5,0.3-3.2,0.5-4.9,0.8c-1.7,0.3-3.4,0.4-5.3,0.5
				c-1.8,0.1-3.4,0.2-5,0.2c-4.7,0-8.4-0.5-11.3-1.7c-2.8-1.2-4.7-2.9-5.8-5.1c-1.1-2.2-1.5-4.8-1.2-7.9c0.3-3.1,1.2-6.5,2.6-10.3
				l0.7-2c1.5-3.7,3.2-7.3,5.2-10.5s4.4-6.1,7.3-8.5c2.8-2.4,6.1-4.3,9.9-5.7c3.8-1.5,8.1-2.1,12.9-2.1c4.5,0,8.1,0.6,10.6,1.9
				c2.5,1.3,4.2,2.9,5.1,4.9s1.2,4.4,0.8,7c-0.4,2.6-1.1,5.4-2.2,8.2l-1.5,4.1c-1,2.5-2.1,4.2-3.4,5c-1.3,0.7-3.3,1.1-6,1.1
				L744.5,156L744.5,156z M759.9,136.3c-5.2,0-9.1,3.1-11.6,9.3h15.2l0.5-1.5C766,138.9,764.7,136.3,759.9,136.3z"/>
		</g>
	</g>
	<g>
		<path class="st2" d="M198.9,36.9c-76.9,0-139.2,62.4-139.2,139.2s62.4,139.2,139.2,139.2S338.2,253,338.2,176.1
			S275.8,36.9,198.9,36.9z"/>
		<circle class="st0" cx="198.9" cy="176.1" r="113.1"/>
	</g>
	<path class="st1" d="M233.7,119.4l4-10.4c0.4-1.1-0.4-2.2-1.5-2.2h-14.9l-4.7,12.3h-6.6l3.8-10.1c0.4-1.1-0.4-2.2-1.5-2.2h-14.9
		l-4.7,12.3h-46.7c-2.1,0-4.1,1.2-5.2,3l-11.6,20.5h16.2h70.9c2.9,0,5.7,0.5,8.4,1.6c5.2,2.1,11.3,6.9,9.7,17.7
		c-2.5,18.1-21,50.1-61,50.6l20.7-53.8c0.8-2.2-0.8-4.5-3.2-4.5h-27.7l-33.5,82.2c0,0,6.7,0.8,17.3,0.8l-3.4,8.6H159
		c1.2,0,2.3-0.7,2.7-1.9l2.9-7.4c2.3-0.2,4.5-0.5,6.9-0.7l-3.8,10H183c1.2,0,2.3-0.7,2.7-1.9l4.4-11.3c25.1-5.7,51.9-18.2,68-44.4
		C290.4,135.4,256.9,121.8,233.7,119.4z"/>
</g>
</svg>
