<?xml version="1.0" encoding="utf-8"?>
<!-- Generator: Adobe Illustrator 19.2.0, SVG Export Plug-In . SVG Version: 6.00 Build 0)  -->
<svg version="1.1" id="Layer_1" xmlns="http://www.w3.org/2000/svg" xmlns:xlink="http://www.w3.org/1999/xlink" x="0px" y="0px"
	 viewBox="0 0 549 595.3" style="enable-background:new 0 0 549 595.3;" xml:space="preserve">
<style type="text/css">
	.st0{fill:#002352;}
	.st1{fill:#FFFFFF;}
	.st2{fill:#0066CC;}
</style>
<g>
	<g>
		<path class="st0" d="M87.9,378.7h26.1c6.3,0,11.2,0.8,14.7,2.5c3.6,1.6,6,3.9,7.4,6.8c1.4,2.9,1.8,6.3,1.3,10.4
			c-0.5,4.1-1.7,8.5-3.6,13.3l-2.3,5.9c-1.9,4.8-4.1,9.3-6.7,13.3c-2.6,4.1-5.7,7.5-9.3,10.4c-3.6,3-7.9,5.2-12.6,6.8
			c-4.7,1.6-10.3,2.5-16.6,2.5H60.2L87.9,378.7z M84.5,435.1h6.3c2.6,0,5-0.3,7.1-0.9c2.1-0.7,4.1-1.7,5.9-3.1
			c1.8-1.4,3.5-3.4,4.9-5.8c1.5-2.4,2.9-5.3,4.2-8.8l1.5-3.9c1.4-3.7,2.3-6.8,2.6-9.1c0.3-2.4,0.1-4.3-0.6-5.7
			c-0.7-1.4-1.9-2.4-3.6-3c-1.7-0.5-3.8-0.8-6.3-0.8h-6.3L84.5,435.1z"/>
		<path class="st0" d="M150.9,397.6h18.4l-20.4,52.8h-18.4L150.9,397.6z M161.9,393c-3.8,0-6.2-0.8-7.1-2.5
			c-0.9-1.6-0.8-3.8,0.2-6.5c1.1-2.8,2.7-4.9,4.8-6.6c2.2-1.6,5.2-2.5,9-2.5c3.8,0,6.2,0.8,7.1,2.5c0.9,1.6,0.8,3.8-0.3,6.6
			c-1,2.7-2.6,4.8-4.8,6.5C168.7,392.2,165.7,393,161.9,393z"/>
		<path class="st0" d="M194.6,445.3c-1.8,1.2-3.9,2.3-6.3,3.3c-2.5,1-5.1,1.4-8,1.4c-6.6,0-10.8-1.9-12.8-5.8s-1.2-10.2,2.3-19.1
			l1-2.5c1.8-4.7,4.1-8.7,6.6-12c2.6-3.3,5.5-6,8.7-8.1s6.7-3.6,10.5-4.6c3.7-0.9,7.7-1.4,11.9-1.4c5.1,0,9.2,0.5,12.5,1.6
			c3.3,1.1,6.2,2.5,8.5,4.1l-16.8,43.4c-1.9,4.7-4.1,9-6.9,12.5c-2.8,3.6-5.8,6.6-9.2,9c-3.4,2.5-7,4.2-10.8,5.4s-7.7,1.8-11.7,1.8
			c-4.1,0-8-0.3-11.4-0.7c-3.5-0.5-6.7-1.4-9.6-2.8l8-13.4c1.7,0.7,3.9,1.3,6.5,1.8c2.6,0.5,5.5,0.8,8.5,0.8c4.2,0,7.9-1,10.8-3
			c3-1.9,5.4-5.3,7.2-10.2L194.6,445.3z M188.1,425.5c-1.6,4.1-2.2,7-1.8,8.5c0.4,1.5,1.9,2.3,4.2,2.3c2.5,0,4.5-0.7,6.3-2
			c1.8-1.4,3.4-3.9,4.7-7.5l6-15.6c-1-0.7-2.8-1-5.2-1c-2.4,0-4.7,0.8-6.9,2.5c-2.3,1.7-4.1,4.6-5.7,8.5L188.1,425.5z"/>
		<path class="st0" d="M243.7,397.6H262l-20.4,52.8h-18.4L243.7,397.6z M254.6,393c-3.8,0-6.2-0.8-7.1-2.5c-0.9-1.6-0.8-3.8,0.2-6.5
			c1.1-2.8,2.7-4.9,4.8-6.6c2.2-1.6,5.2-2.5,9-2.5s6.2,0.8,7.1,2.5c0.9,1.6,0.8,3.8-0.3,6.6c-1,2.7-2.6,4.8-4.8,6.5
			C261.4,392.2,258.5,393,254.6,393z"/>
		<path class="st0" d="M254.5,450.4l27.7-71.7h29.9c3.9,0,7.1,0.4,9.6,1.4c2.5,0.9,4.4,2.2,5.6,3.9c1.2,1.7,1.8,3.6,1.9,5.9
			c0,2.3-0.5,4.8-1.5,7.5l-0.5,1.4c-1.2,3-2.9,5.8-5.1,8.1c-2.2,2.5-4.9,4.4-8,5.8c2.3,1.4,3.7,3.5,4.3,6.3c0.6,2.8,0.3,5.9-1.2,9.5
			l-0.5,1.4c-2.5,6.3-6.4,11.3-12,14.9c-5.6,3.6-12.9,5.4-22.2,5.4L254.5,450.4L254.5,450.4z M277.1,436.5h11.3
			c2.3,0,4.4-0.5,6.3-1.6s3.4-2.9,4.4-5.3l0.5-1.4c1.1-2.8,1.1-4.7,0.2-5.9c-1-1.2-2.9-1.8-5.6-1.8h-10.9L277.1,436.5z M288.7,406.4
			h10.9c2.1,0,4-0.5,5.7-1.5c1.7-1,3-2.6,3.8-4.8l0.4-1.1c0.9-2.4,0.8-4-0.2-5c-1-0.9-2.6-1.4-4.7-1.4h-10.5L288.7,406.4z"/>
		<path class="st0" d="M391.9,397.6L351,452c-2.5,3.4-5,6.5-7.4,9.2c-2.4,2.8-4.9,5.1-7.5,7c-2.6,1.9-5.4,3.5-8.4,4.5
			c-3,1-6.4,1.5-10.2,1.5c-1.1,0-2.3-0.1-3.6-0.2c-1.3-0.2-2.5-0.3-3.8-0.5c-1.3-0.2-2.4-0.4-3.3-0.7s-1.7-0.5-2.2-0.8l7.7-13.6
			c1,0.3,2.2,0.5,3.4,0.7c1.3,0.2,2.5,0.3,4,0.3c1.9,0,3.9-0.3,5.8-1c1.9-0.7,3.6-2,5.1-4.1l2.7-3.8l-0.3-52.9h20.7l-3,33l20.9-33
			L391.9,397.6L391.9,397.6z"/>
		<path class="st0" d="M417.4,410.9l-7.3,18.7c-2.1,5.4-0.6,8,4.6,8c1.9,0,3.5-0.1,4.7-0.2c1.3-0.2,2.5-0.3,3.5-0.4l-6.9,12.7
			c-0.7,0.2-1.5,0.4-2.5,0.6c-0.9,0.2-1.9,0.3-3.1,0.5c-1.1,0.2-2.3,0.3-3.4,0.3c-1.2,0.1-2.3,0.2-3.3,0.2c-3.8,0-6.9-0.4-9.1-1.4
			c-2.2-0.9-3.8-2.3-4.7-4.1s-1.1-4.1-0.8-6.8s1.3-5.9,2.7-9.5l7.3-18.7h-9.4l7-13.3h7.5l4.7-12.2l19.1-2.3l-5.6,14.5h15.2l-7,13.3
			L417.4,410.9L417.4,410.9z"/>
		<path class="st0" d="M449.7,429.4c-0.4,1.7-0.7,3-0.6,4.2c0.1,1.1,0.5,2,1.3,2.8c0.8,0.7,1.9,1.2,3.5,1.5s3.6,0.4,6,0.4
			c2.5,0,5.2-0.2,8.1-0.4c2.9-0.3,5.8-0.7,8.5-1.1l-7.1,12.2c-1.1,0.3-2.5,0.7-4.1,0.9c-1.6,0.3-3.3,0.6-5.1,0.8
			c-1.8,0.3-3.6,0.4-5.4,0.6c-1.9,0.2-3.6,0.2-5.2,0.2c-4.8,0-8.7-0.6-11.5-1.8c-2.9-1.2-4.8-3-6-5.2c-1.2-2.3-1.5-5-1.3-8.1
			c0.3-3.1,1.2-6.7,2.7-10.6l0.8-2c1.4-3.8,3.2-7.4,5.3-10.7c2-3.4,4.6-6.3,7.4-8.7c2.9-2.5,6.3-4.4,10.2-5.8
			c3.8-1.4,8.3-2.2,13.2-2.2c4.7,0,8.3,0.7,10.9,1.9c2.5,1.3,4.3,3,5.2,5.1c0.9,2.1,1.3,4.5,0.9,7.2c-0.3,2.7-1.1,5.5-2.2,8.4
			l-1.6,4.2c-1,2.6-2.1,4.3-3.4,5.1c-1.3,0.8-3.3,1.2-6.2,1.2L449.7,429.4L449.7,429.4z M465.6,409.3c-5.3,0-9.3,3.2-11.9,9.6h15.6
			l0.6-1.5C471.9,412,470.5,409.3,465.6,409.3z"/>
	</g>
	<path class="st0" d="M87.7,485.4c-3.6,0-6.8,2.2-8.1,5.5l-19.5,48.2h401.1c3.6,0,6.8-2.2,8.1-5.5l19.5-48.2H87.7z"/>
	<g>
		<path class="st1" d="M121.1,529.9l13.7-35.4h14.1c1.9,0,3.4,0.3,4.6,0.7c1.2,0.4,2,1.1,2.6,1.9c0.6,0.8,0.8,1.8,0.8,2.9
			c0,1.1-0.3,2.3-0.8,3.6l-0.3,0.8c-0.6,1.5-1.4,2.9-2.6,4.1c-1.2,1.2-2.5,2.2-4.2,2.9c1.4,0.6,2.2,1.7,2.5,3.1s0.1,3-0.6,4.9
			l-0.3,0.8c-1.2,3-3.1,5.5-5.8,7.2c-2.6,1.7-6.1,2.5-10.3,2.5L121.1,529.9L121.1,529.9z M130.5,524.3h6.3c1.6,0,3-0.3,4.1-1
			c1.1-0.7,1.9-1.8,2.5-3.2l0.3-0.8c1.2-3.1,0.1-4.7-3.3-4.7h-6.2L130.5,524.3z M136.4,508.8h6.2c1.4,0,2.5-0.3,3.6-0.9
			c1-0.7,1.8-1.6,2.3-2.9l0.3-0.7c1-2.7,0-4.1-3.1-4.1h-5.8L136.4,508.8z"/>
		<path class="st1" d="M173.7,494.6l-11.3,29.2h15.2l-3.2,6.2h-21.9l13.7-35.4H173.7z"/>
		<path class="st1" d="M213.6,514.3c-0.9,2.4-2,4.6-3.2,6.6c-1.2,2-2.7,3.7-4.3,5.2c-1.7,1.4-3.6,2.5-5.8,3.4
			c-2.2,0.8-4.7,1.2-7.6,1.2c-3,0-5.2-0.4-6.8-1.2c-1.6-0.8-2.6-1.9-3.1-3.4c-0.5-1.4-0.6-3.1-0.3-5.2c0.3-2,1-4.2,1.9-6.6l1.6-4.1
			c0.9-2.5,2-4.7,3.3-6.7s2.7-3.7,4.4-5.2c1.7-1.4,3.6-2.5,5.8-3.3c2.2-0.8,4.7-1.2,7.5-1.2c3,0,5.3,0.4,6.9,1.3
			c1.6,0.8,2.6,2,3.1,3.5c0.5,1.4,0.6,3.2,0.3,5.2c-0.3,1.9-1,4.1-1.9,6.4L213.6,514.3z M192.1,514.4c-0.8,2.1-1.4,3.8-1.6,5.2
			c-0.3,1.3-0.2,2.4,0.1,3c0.3,0.8,0.8,1.2,1.6,1.5c0.8,0.3,1.7,0.4,2.9,0.4c1.1,0,2.1-0.2,3-0.4s1.9-0.8,2.8-1.5
			c0.8-0.8,1.8-1.8,2.5-3c0.8-1.3,1.6-3,2.5-5.1l1.7-4.4c0.8-2.1,1.4-3.8,1.5-5.2c0.3-1.3,0.2-2.3-0.1-3c-0.3-0.8-0.8-1.2-1.6-1.5
			c-0.8-0.3-1.7-0.4-2.9-0.4c-1.1,0-2.1,0.2-3,0.4c-0.9,0.3-1.9,0.8-2.8,1.5c-0.8,0.8-1.8,1.8-2.5,3c-0.8,1.3-1.6,3-2.5,5.1
			L192.1,514.4z"/>
		<path class="st1" d="M228.2,530.4c-2.9,0-5.1-0.3-6.8-1c-1.6-0.7-2.8-1.7-3.4-3c-0.7-1.4-0.8-3-0.5-5c0.3-2,0.9-4.3,2-7l1.4-3.6
			c0.9-2.4,2-4.6,3.3-6.6c1.3-2,2.8-3.8,4.6-5.2c1.8-1.5,3.8-2.6,6.1-3.5c2.3-0.8,5-1.3,8-1.3c1.7,0,3.2,0.2,4.5,0.4
			c1.4,0.3,2.4,0.6,3.2,0.9l-3.5,5.8c-0.7-0.3-1.5-0.5-2.5-0.7c-0.9-0.2-2-0.3-3.2-0.3c-1.6,0-3,0.2-4.2,0.5
			c-1.3,0.3-2.4,0.8-3.4,1.7c-1,0.8-1.9,1.9-2.8,3.2s-1.7,3-2.5,5.2l-1.3,3.3c-0.8,2.1-1.4,3.8-1.6,5.2c-0.3,1.4-0.2,2.4,0.3,3.1
			c0.3,0.8,1.1,1.3,2.1,1.5c1,0.3,2.5,0.4,4.1,0.4c0.9,0,2.1-0.1,3.3-0.2c1.3-0.1,2.5-0.3,3.9-0.5l-3.5,5.9
			c-1.4,0.3-2.7,0.5-4.1,0.7C230.6,530.4,229.4,530.4,228.2,530.4z"/>
		<path class="st1" d="M256,514.5l-6,15.5h-7.2l13.7-35.4h7.2l-5.6,14.5l17.8-14.5h8.4l-20.9,16.9l8,18.4h-9.1L256,514.5z"/>
		<path class="st1" d="M287.3,530.4c-2.9,0-5.1-0.3-6.8-1c-1.6-0.7-2.8-1.7-3.4-3c-0.7-1.4-0.8-3-0.5-5c0.3-2,0.9-4.3,2-7l1.4-3.6
			c0.9-2.4,2-4.6,3.3-6.6c1.3-2,2.8-3.8,4.6-5.2c1.8-1.5,3.8-2.6,6.1-3.5c2.3-0.8,5-1.3,8-1.3c1.7,0,3.2,0.2,4.5,0.4
			c1.4,0.3,2.4,0.6,3.2,0.9l-3.5,5.8c-0.7-0.3-1.5-0.5-2.5-0.7c-0.9-0.2-2-0.3-3.2-0.3c-1.6,0-3,0.2-4.2,0.5
			c-1.3,0.3-2.4,0.8-3.4,1.7c-1,0.8-1.9,1.9-2.8,3.2s-1.7,3-2.5,5.2l-1.3,3.3c-0.8,2.1-1.4,3.8-1.6,5.2c-0.3,1.4-0.2,2.4,0.3,3.1
			c0.3,0.8,1.1,1.3,2.1,1.5c1,0.3,2.5,0.4,4.1,0.4c0.9,0,2.1-0.1,3.3-0.2c1.3-0.1,2.5-0.3,3.9-0.5l-3.5,5.9
			c-1.4,0.3-2.7,0.5-4.1,0.7C289.7,530.4,288.4,530.4,287.3,530.4z"/>
		<path class="st1" d="M343.2,494.6l-13.7,35.4h-7.5l6-15.5h-12.4l-6,15.5H302l13.7-35.4h7.5l-5.2,13.6h12.4l5.2-13.6H343.2z"/>
		<path class="st1" d="M359,521.1h-11.4l-6,8.7h-7.4l25.5-35.4h8l-1.6,35.4h-7.8L359,521.1z M351.4,515.3h8.3l1.1-13.5L351.4,515.3z
			"/>
		<path class="st1" d="M378.3,529.9h-7.5l13.7-35.4h7.5L378.3,529.9z"/>
		<path class="st1" d="M405.9,494.6l4.8,23.4l9.1-23.4h7l-13.7,35.4h-6.7l-4.8-23.4l-9.1,23.4h-7.1l13.7-35.4H405.9z"/>
	</g>
	<g>
		<path class="st2" d="M274,56.5c-79.1,0-143.2,64.1-143.2,143.2S194.9,343,274,343s143.2-64.1,143.2-143.2S353.1,56.5,274,56.5z"/>
		<circle class="st0" cx="274" cy="199.7" r="116.3"/>
	</g>
	<path class="st1" d="M309.7,141.3l4.1-10.7c0.4-1.1-0.4-2.3-1.5-2.3H297l-4.8,12.6h-6.8l4-10.3c0.4-1.1-0.4-2.3-1.5-2.3h-15.3
		l-4.8,12.6h-48c-2.2,0-4.2,1.2-5.3,3L202.5,165h16.8h72.9c3,0,5.9,0.6,8.7,1.7c5.3,2.2,11.5,7.1,10,18.2
		c-2.6,18.6-21.6,51.5-62.7,52l21.2-55.3c0.8-2.3-0.8-4.7-3.2-4.7h-28.5l-34.4,84.6c0,0,6.9,0.8,17.9,0.8l-3.4,8.9h15.7
		c1.3,0,2.4-0.8,2.9-1.9l3-7.7c2.3-0.2,4.7-0.4,7.1-0.7l-4,10.3H258c1.3,0,2.4-0.8,2.9-1.9l4.5-11.7c25.7-5.8,53.5-18.6,69.9-45.6
		C368.1,157.8,333.6,143.7,309.7,141.3z"/>
</g>
</svg>
